<svg width="1200" height="1200" viewBox="0 0 1200 1200" fill="none" xmlns="http://www.w3.org/2000/svg">
<path d="M441.86 467.29C552.55 392.45 806.86 193.21 939.99 309.14C1073.12 425.07 1000.25 981.74 607.99 921.8C460.63 899.28 237.99 886.85 206.77 817.8C154.88 702.94 372.75 514 441.86 467.29Z" fill="#B2DFD8" fill-opacity="0.909804"></path>
<path d="M877.21 396.45V285.56C877.191 270.284 871.115 255.639 860.313 244.837C849.511 234.035 834.866 227.958 819.59 227.94H562.19C546.914 227.958 532.269 234.035 521.467 244.837C510.665 255.639 504.589 270.284 504.57 285.56V330.56H502.38V369.36H504.57V378.36H502.38V439.5H504.57V441.79H502.38V503H504.57V903.92C504.586 919.197 510.662 933.843 521.464 944.646C532.266 955.448 546.913 961.524 562.19 961.54H819.59C834.867 961.524 849.514 955.448 860.316 944.646C871.118 933.843 877.194 919.197 877.21 903.92V485.6H879.4V396.45H877.21Z" fill="#1D252F"></path>
<path d="M853.63 281.5V912C853.63 926.52 841.95 938.41 827.3 939.15C826.82 939.15 826.35 939.15 825.87 939.15H555.87C555.38 939.15 554.87 939.15 554.44 939.15C539.79 938.41 528.09 926.52 528.09 912V281.5C528.09 266.5 540.56 254.32 555.87 254.32H602.59V259.86C602.617 262.279 603.121 264.669 604.072 266.893C605.023 269.118 606.403 271.133 608.133 272.824C609.863 274.515 611.909 275.848 614.155 276.749C616.4 277.649 618.801 278.098 621.22 278.07H760.52C765.403 278.121 770.106 276.232 773.597 272.817C777.089 269.403 779.082 264.743 779.14 259.86V254.32H825.87C841.18 254.32 853.63 266.51 853.63 281.5Z" fill="#E0F2F0"></path>
<path d="M736.51 263.01C738.907 263.01 740.85 261.067 740.85 258.67C740.85 256.273 738.907 254.33 736.51 254.33C734.113 254.33 732.17 256.273 732.17 258.67C732.17 261.067 734.113 263.01 736.51 263.01Z" fill="white"></path>
<path d="M719.41 254.32H649.95C647.553 254.32 645.61 256.263 645.61 258.66V258.67C645.61 261.067 647.553 263.01 649.95 263.01H719.41C721.807 263.01 723.75 261.067 723.75 258.67V258.66C723.75 256.263 721.807 254.32 719.41 254.32Z" fill="white"></path>
<path d="M824.12 480.76V628.42C824.12 631.072 823.066 633.616 821.191 635.491C819.316 637.366 816.772 638.42 814.12 638.42H568.52C565.868 638.42 563.324 637.366 561.449 635.491C559.574 633.616 558.52 631.072 558.52 628.42V480.76C558.52 478.108 559.574 475.564 561.449 473.689C563.324 471.814 565.868 470.76 568.52 470.76H814.12C816.772 470.76 819.316 471.814 821.191 473.689C823.066 475.564 824.12 478.108 824.12 480.76Z" fill="white"></path>
<path d="M824.12 546.06V628.42C824.12 631.072 823.066 633.616 821.191 635.491C819.316 637.366 816.772 638.42 814.12 638.42H568.52C565.868 638.42 563.324 637.366 561.449 635.491C559.574 633.616 558.52 631.072 558.52 628.42V480.76C558.52 478.108 559.574 475.564 561.449 473.689C563.324 471.814 565.868 470.76 568.52 470.76H721.29" stroke="#1D252E" stroke-width="4" stroke-linecap="round" stroke-linejoin="round"></path>
<path d="M669.01 580.45H586.35C583.274 580.45 580.78 582.944 580.78 586.02C580.78 589.096 583.274 591.59 586.35 591.59H669.01C672.086 591.59 674.58 589.096 674.58 586.02C674.58 582.944 672.086 580.45 669.01 580.45Z" fill="#1D252F"></path>
<path d="M694.64 603.22H586.35C583.274 603.22 580.78 605.714 580.78 608.79C580.78 611.866 583.274 614.36 586.35 614.36H694.64C697.716 614.36 700.21 611.866 700.21 608.79C700.21 605.714 697.716 603.22 694.64 603.22Z" fill="#1D252F"></path>
<path d="M824.12 497.58H558.51V536.83H824.12V497.58Z" fill="#1D252F"></path>
<path d="M767.09 450.09H799.04C824.406 450.09 844.97 470.654 844.97 496.02C844.97 521.387 824.406 541.95 799.04 541.95H767.09C741.724 541.95 721.16 521.387 721.16 496.02C721.16 470.654 741.724 450.09 767.09 450.09Z" fill="#009681" stroke="black" stroke-width="4"></path>
<path d="M771.4 520.73C770.75 520.731 770.106 520.603 769.505 520.355C768.905 520.106 768.359 519.741 767.9 519.28L751.37 502.76C750.442 501.832 749.92 500.573 749.92 499.26C749.92 497.947 750.442 496.688 751.37 495.76C752.298 494.832 753.557 494.31 754.87 494.31C756.183 494.31 757.442 494.832 758.37 495.76L771.37 508.76L805.63 474.49C806.558 473.562 807.817 473.04 809.13 473.04C810.443 473.04 811.702 473.562 812.63 474.49C813.558 475.418 814.08 476.677 814.08 477.99C814.08 479.303 813.558 480.562 812.63 481.49L774.87 519.25C773.955 520.184 772.707 520.716 771.4 520.73Z" fill="white" stroke="#1D252E" stroke-width="4" stroke-linecap="round" stroke-linejoin="round"></path>
<path d="M594.85 669.27H786.85" stroke="#1D252E" stroke-width="4" stroke-linecap="round" stroke-linejoin="round"></path>
<path d="M641.86 688.39H739.84" stroke="#1D252E" stroke-width="4" stroke-linecap="round" stroke-linejoin="round"></path>
<path d="M302.12 339.4C303.74 333.55 307.57 332.95 309.24 336.13C310.91 339.31 307.47 347.46 307.65 354.59C307.65 354.59 343.65 432.26 346.82 432.79C346.82 432.79 369.77 435.36 373.28 438.65C376.79 441.94 375.69 457.96 366.7 462.57C357.71 467.18 334.84 455.26 334.26 455.22C322.11 454.52 293.44 366.66 293.44 366.66C286.44 353.12 283.23 348.92 279.66 338.15C277.57 326.69 291.76 321.4 297.66 329.92C299.361 332.995 300.874 336.171 302.19 339.43" fill="white"></path>
<path d="M302.15 339.43C300.834 336.171 299.321 332.995 297.62 329.92C291.76 321.4 277.57 326.69 279.62 338.15C283.19 348.92 286.43 353.15 293.4 366.66C293.4 366.66 322.27 452.91 334.22 455.22" stroke="#1D252E" stroke-width="3" stroke-linecap="round" stroke-linejoin="round"></path>
<path d="M346.82 432.79C343.66 432.26 308.82 358.73 307.63 355.4" stroke="#1D252E" stroke-width="3" stroke-linecap="round" stroke-linejoin="round"></path>
<path d="M302.12 339.4C303.74 333.55 307.57 332.95 309.24 336.13C310.91 339.31 307.47 347.46 307.65 354.59" stroke="#1D252E" stroke-width="3" stroke-linecap="round" stroke-linejoin="round"></path>
<path d="M396.57 865.29L400.5 908.87L407 925.49L343 948.42L340.46 947.3L340.64 945.64C353.05 927.87 366.08 909.64 370.42 896.49L367 869.64L396.57 865.29Z" fill="white"></path>
<path d="M397.9 879.25C397.9 879.25 399.55 908.25 401.69 912.58C403.85 916.712 405.628 921.034 407 925.49L343 948.42C342.514 948.598 341.978 948.581 341.504 948.372C341.03 948.164 340.656 947.779 340.46 947.3C340.352 947.03 340.312 946.737 340.343 946.448C340.375 946.158 340.477 945.881 340.64 945.64C360.56 916.23 371.49 899.22 370.42 896.49L369.61 887.77" stroke="#1D252E" stroke-width="3" stroke-linecap="round" stroke-linejoin="round"></path>
<path d="M486.75 860.15L490.68 903.74L497.17 920.36L432.58 943.67L430 942.55L430.19 940.89C442.73 923.04 456.24 904.51 460.58 891.36L457.13 864.51L486.75 860.15Z" fill="white"></path>
<path d="M488.08 874.12C488.08 874.12 489.73 903.12 491.87 907.45C494.026 911.583 495.8 915.904 497.17 920.36L432.58 943.67C432.092 943.855 431.55 943.841 431.072 943.631C430.594 943.422 430.216 943.034 430.02 942.55C429.912 942.279 429.872 941.986 429.905 941.696C429.939 941.406 430.043 941.129 430.21 940.89C450.35 911.34 461.66 894.08 460.6 891.36L459.79 882.63" stroke="#1D252E" stroke-width="3" stroke-linecap="round" stroke-linejoin="round"></path>
<path d="M435.43 444.54L423.53 441.63L419.55 419.95L422.66 412.44L423.33 404.85L428.78 403.3L430.67 397.6L428.19 392.3L426.17 390.94L426.81 380.85L389.4 384.52L387.46 386.1L384.23 396.54L383.5 407.85L387.41 416.71L392.64 421.66L399.39 424.54L401.62 423.91L404.65 441.85L388.48 443.51L404.25 459.69L436.42 458.87L435.43 444.54Z" fill="white"></path>
<path d="M431.42 443.92L423.06 442.6L419.51 420.27C419.51 420.27 422.21 413.93 422.66 412.44C423.206 409.963 423.417 407.424 423.29 404.89C429.29 403.69 431.51 400.74 430.21 395.98C428.99 391.54 425.77 390.27 420.43 391.92" stroke="#1D252E" stroke-width="3" stroke-linecap="round" stroke-linejoin="round"></path>
<path d="M386 391.89C383.08 399.55 382.527 405.737 384.34 410.45C388.58 419.783 394.627 424.407 402.48 424.32L404.58 442.17L396.58 443.38" stroke="#1D252E" stroke-width="3" stroke-linecap="round" stroke-linejoin="round"></path>
<path d="M465.14 603.83C465.88 612.78 463.36 675.62 473.96 741.74C484.32 806.39 494.19 868.22 494.19 868.22C479.59 872.267 468.59 874.647 461.19 875.36C453.79 876.073 448.35 875.26 444.87 872.92L426.33 759.63L420.13 656.38C413.85 659.11 406.44 659.02 401.27 655.38L396.27 750.05L401.76 871.54C390.33 874.3 374.1 877.54 368.31 878.02C361.639 878.432 354.942 878.025 348.37 876.81L344 762.44C344 762.44 355.41 612.3 362 605.22C374.69 591.43 452.59 594.82 465.14 603.83Z" fill="#1D252E"></path>
<path d="M426.16 387.58C424.52 386.84 420.37 387.35 418.8 387.89" stroke="#1D252E" stroke-width="3" stroke-linecap="round" stroke-linejoin="round"></path>
<path d="M427.09 385C423.59 384.334 419.989 384.408 416.52 385.22C415.92 384.04 415.203 382.707 414.37 381.22C410.09 389.293 401.143 391.167 387.53 386.84C367.12 380.36 380.74 344.84 401.58 353.09C409.1 356.203 413.607 359.183 415.1 362.03C420.267 361.363 423.713 362.333 425.44 364.94C428.527 368.36 429.077 375.047 427.09 385Z" fill="#1D252E"></path>
<path d="M435.84 444C429.12 453.413 421.12 457.443 411.84 456.09C397.92 454.09 393.51 450.47 390.78 443.68C382.61 434.68 354.99 428.68 352.78 430.34C350.57 432 334.32 452.53 339.56 470C340.11 471.82 360.69 485 361.2 486.65C364.03 495.96 366.2 502.65 366.2 502.65C363.63 512.5 364.08 510.99 360.91 546.37C360.13 562.01 358.607 582.06 356.34 606.52C382.06 614.887 401.58 619.087 414.9 619.12C428.22 619.153 446.61 615.04 470.07 606.78L461.62 513.41C463.28 512.69 470.83 485.13 466.31 464.41C461.79 443.69 455.44 447 435.84 444Z" fill="#009681"></path>
<path d="M361.88 536.59C361.88 536.59 364.47 496.72 370.88 490.29" stroke="#1D252E" stroke-width="3" stroke-linecap="round" stroke-linejoin="round"></path>
<path d="M349.24 509.57L338.79 509.74C338.17 509.789 337.549 509.67 336.991 509.395C336.433 509.121 335.959 508.701 335.62 508.18L317.75 478C316.39 475.71 318.43 473.42 321.57 473.34L333.5 473.52C334.119 473.476 334.739 473.597 335.296 473.871C335.853 474.145 336.327 474.562 336.67 475.08L353.33 504.16C354.68 506.4 352.38 509.48 349.24 509.57Z" fill="#9DD5C0"></path>
<path d="M352.28 501.31L335.14 473.71L321 473.58C316.91 473.36 317.72 477.95 317.72 477.95L332.33 477.9L345.89 499.18" stroke="#1D252E" stroke-width="2" stroke-linecap="round" stroke-linejoin="round"></path>
<path d="M323.057 482.343C323.526 482.163 323.74 481.582 323.534 481.046C323.329 480.51 322.781 480.221 322.312 480.401C321.843 480.581 321.629 481.161 321.835 481.698C322.041 482.234 322.588 482.523 323.057 482.343Z" stroke="#1D252E" stroke-miterlimit="10"></path>
<path d="M334.74 477.58L337.07 481.14" stroke="#1D252E" stroke-linecap="round" stroke-linejoin="round"></path>
<path d="M428.72 529.77C420.82 538.15 407.91 536 407.91 536L353.68 511.34C349.53 513.243 344.918 513.906 340.4 513.25C333.48 512 322.14 503.9 320.74 496.08C319.34 488.26 340.2 490.08 345.27 490.34C348.663 490.54 354.047 492.873 361.42 497.34L408.2 507.92L416.73 499.52L441.47 517.89L428.72 529.77Z" fill="white"></path>
<path d="M428.72 529.77C420.82 538.15 408.15 535.94 408.15 535.94L353.68 511.34C349.53 513.243 344.918 513.906 340.4 513.25C333.48 512 322.14 503.9 320.74 496.08C319.34 488.26 340.2 490.08 345.27 490.34C348.663 490.54 354.047 492.873 361.42 497.34L408.2 507.92" stroke="#1D252E" stroke-width="3" stroke-linecap="round"></path>
<path d="M436.91 527.91L409.53 500.76C426.15 476.69 444.25 442.76 456.71 447.93C477.31 456.53 474.28 478.27 471.96 488.27C466.15 513.31 436.91 527.91 436.91 527.91Z" fill="#009681"></path>
<path d="M471.24 490.6C460.17 513.82 436.91 527.91 436.91 527.91" stroke="#1D252E" stroke-width="3" stroke-linecap="round"></path>
<path d="M425.08 489.11C421.83 490.37 419.55 493.2 417.27 497.11" stroke="#1D252E" stroke-width="3" stroke-linecap="round"></path>
<path d="M407.97 960.33H337.95" stroke="#1D252E" stroke-width="3" stroke-linecap="round" stroke-linejoin="round"></path>
<path d="M509.73 960.33H427.67" stroke="#1D252E" stroke-width="3" stroke-linecap="round" stroke-linejoin="round"></path>
</svg>
