<svg xmlns="http://www.w3.org/2000/svg" width="1200" height="1200" fill="none"><path fill="#B2DFD8" fill-opacity=".91" d="M441.86 467.29c110.69-74.84 365-274.08 498.13-158.15s60.26 672.6-332 612.66c-147.36-22.52-370-34.95-401.22-104C154.88 702.94 372.75 514 441.86 467.29"/><path fill="#1D252F" d="M877.21 396.45V285.56a57.69 57.69 0 0 0-57.62-57.62h-257.4a57.687 57.687 0 0 0-57.62 57.62v45h-2.19v38.8h2.19v9h-2.19v61.14h2.19v2.29h-2.19V503h2.19v400.92a57.683 57.683 0 0 0 57.62 57.62h257.4a57.68 57.68 0 0 0 57.62-57.62V485.6h2.19v-89.15z"/><path fill="#E0F2F0" d="M853.63 281.5V912c0 14.52-11.68 26.41-26.33 27.15H554.44c-14.65-.74-26.35-12.63-26.35-27.15V281.5c0-15 12.47-27.18 27.78-27.18h46.72v5.54a18.4 18.4 0 0 0 5.543 12.964 18.43 18.43 0 0 0 13.087 5.246h139.3a18.42 18.42 0 0 0 13.077-5.253 18.43 18.43 0 0 0 5.543-12.957v-5.54h46.73c15.31 0 27.76 12.19 27.76 27.18"/><path fill="#fff" d="M736.51 263.01a4.34 4.34 0 1 0 0-8.68 4.34 4.34 0 0 0 0 8.68M719.41 254.32h-69.46a4.34 4.34 0 0 0-4.34 4.34v.01a4.34 4.34 0 0 0 4.34 4.34h69.46a4.34 4.34 0 0 0 4.34-4.34v-.01a4.34 4.34 0 0 0-4.34-4.34M824.12 480.76v147.66a10 10 0 0 1-10 10h-245.6a10 10 0 0 1-10-10V480.76a10 10 0 0 1 10-10h245.6a10 10 0 0 1 10 10"/><path stroke="#1D252E" stroke-linecap="round" stroke-linejoin="round" stroke-width="4" d="M824.12 546.06v82.36a10 10 0 0 1-10 10h-245.6a10 10 0 0 1-10-10V480.76a10 10 0 0 1 10-10h152.77"/><path fill="#1D252F" d="M669.01 580.45h-82.66a5.57 5.57 0 0 0 0 11.14h82.66a5.57 5.57 0 0 0 0-11.14M694.64 603.22H586.35a5.57 5.57 0 0 0 0 11.14h108.29a5.57 5.57 0 0 0 0-11.14M824.12 497.58H558.51v39.25h265.61z"/><path fill="#009681" stroke="#000" stroke-width="4" d="M767.09 450.09h31.95c25.366 0 45.93 20.564 45.93 45.93 0 25.367-20.564 45.93-45.93 45.93h-31.95c-25.366 0-45.93-20.563-45.93-45.93 0-25.366 20.564-45.93 45.93-45.93Z"/><path fill="#fff" stroke="#1D252E" stroke-linecap="round" stroke-linejoin="round" stroke-width="4" d="M771.4 520.73a4.933 4.933 0 0 1-3.5-1.45l-16.53-16.52a4.95 4.95 0 1 1 7-7l13 13 34.26-34.27a4.95 4.95 0 1 1 7 7l-37.76 37.76a4.93 4.93 0 0 1-3.47 1.48"/><path stroke="#1D252E" stroke-linecap="round" stroke-linejoin="round" stroke-width="4" d="M594.85 669.27h192M641.86 688.39h97.98"/><path fill="#fff" d="M302.12 339.4c1.62-5.85 5.45-6.45 7.12-3.27s-1.77 11.33-1.59 18.46c0 0 36 77.67 39.17 78.2 0 0 22.95 2.57 26.46 5.86s2.41 19.31-6.58 23.92-31.86-7.31-32.44-7.35c-12.15-.7-40.82-88.56-40.82-88.56-7-13.54-10.21-17.74-13.78-28.51-2.09-11.46 12.1-16.75 18-8.23a87 87 0 0 1 4.53 9.51"/><path stroke="#1D252E" stroke-linecap="round" stroke-linejoin="round" stroke-width="3" d="M302.15 339.43a87 87 0 0 0-4.53-9.51c-5.86-8.52-20.05-3.23-18 8.23 3.57 10.77 6.81 15 13.78 28.51 0 0 28.87 86.25 40.82 88.56M346.82 432.79c-3.16-.53-38-74.06-39.19-77.39"/><path stroke="#1D252E" stroke-linecap="round" stroke-linejoin="round" stroke-width="3" d="M302.12 339.4c1.62-5.85 5.45-6.45 7.12-3.27s-1.77 11.33-1.59 18.46"/><path fill="#fff" d="m396.57 865.29 3.93 43.58 6.5 16.62-64 22.93-2.54-1.12.18-1.66c12.41-17.77 25.44-36 29.78-49.15L367 869.64z"/><path stroke="#1D252E" stroke-linecap="round" stroke-linejoin="round" stroke-width="3" d="M397.9 879.25s1.65 29 3.79 33.33a76.4 76.4 0 0 1 5.31 12.91l-64 22.93a2 2 0 0 1-2.54-1.12 1.78 1.78 0 0 1 .18-1.66c19.92-29.41 30.85-46.42 29.78-49.15l-.81-8.72"/><path fill="#fff" d="m486.75 860.15 3.93 43.59 6.49 16.62-64.59 23.31-2.58-1.12.19-1.66c12.54-17.85 26.05-36.38 30.39-49.53l-3.45-26.85z"/><path stroke="#1D252E" stroke-linecap="round" stroke-linejoin="round" stroke-width="3" d="M488.08 874.12s1.65 29 3.79 33.33a76.6 76.6 0 0 1 5.3 12.91l-64.59 23.31a2 2 0 0 1-2.56-1.12 1.77 1.77 0 0 1 .19-1.66c20.14-29.55 31.45-46.81 30.39-49.53l-.81-8.73"/><path fill="#fff" d="m435.43 444.54-11.9-2.91-3.98-21.68 3.11-7.51.67-7.59 5.45-1.55 1.89-5.7-2.48-5.3-2.02-1.36.64-10.09-37.41 3.67-1.94 1.58-3.23 10.44-.73 11.31 3.91 8.86 5.23 4.95 6.75 2.88 2.23-.63 3.03 17.94-16.17 1.66 15.77 16.18 32.17-.82z"/><path stroke="#1D252E" stroke-linecap="round" stroke-linejoin="round" stroke-width="3" d="m431.42 443.92-8.36-1.32-3.55-22.33s2.7-6.34 3.15-7.83c.546-2.477.757-5.016.63-7.55 6-1.2 8.22-4.15 6.92-8.91-1.22-4.44-4.44-5.71-9.78-4.06M386 391.89q-4.38 11.49-1.66 18.56 6.36 14 18.14 13.87l2.1 17.85-8 1.21"/><path fill="#1D252E" d="M465.14 603.83c.74 8.95-1.78 71.79 8.82 137.91 10.36 64.65 20.23 126.48 20.23 126.48q-21.9 6.07-33 7.14t-16.32-2.44l-18.54-113.29-6.2-103.25c-6.28 2.73-13.69 2.64-18.86-1l-5 94.67 5.49 121.49c-11.43 2.76-27.66 6-33.45 6.48a82 82 0 0 1-19.94-1.21L344 762.44s11.41-150.14 18-157.22c12.69-13.79 90.59-10.4 103.14-1.39"/><path stroke="#1D252E" stroke-linecap="round" stroke-linejoin="round" stroke-width="3" d="M426.16 387.58c-1.64-.74-5.79-.23-7.36.31"/><path fill="#1D252E" d="M427.09 385a25.5 25.5 0 0 0-10.57.22q-.9-1.77-2.15-4-6.42 12.11-26.84 5.62c-20.41-6.48-6.79-42 14.05-33.75q11.28 4.67 13.52 8.94 7.75-1 10.34 2.91 4.63 5.13 1.65 20.06"/><path fill="#009681" d="M435.84 444q-10.08 14.12-24 12.09c-13.92-2-18.33-5.62-21.06-12.41-8.17-9-35.79-15-38-13.34s-18.46 22.19-13.22 39.66c.55 1.82 21.13 15 21.64 16.65 2.83 9.31 5 16 5 16-2.57 9.85-2.12 8.34-5.29 43.72q-1.17 23.46-4.57 60.15 38.58 12.55 58.56 12.6t55.17-12.34l-8.45-93.37c1.66-.72 9.21-28.28 4.69-49S455.44 447 435.84 444"/><path stroke="#1D252E" stroke-linecap="round" stroke-linejoin="round" stroke-width="3" d="M361.88 536.59s2.59-39.87 9-46.3"/><path fill="#9DD5C0" d="m349.24 509.57-10.45.17a3.45 3.45 0 0 1-3.17-1.56L317.75 478c-1.36-2.29.68-4.58 3.82-4.66l11.93.18a3.5 3.5 0 0 1 3.17 1.56l16.66 29.08c1.35 2.24-.95 5.32-4.09 5.41"/><path stroke="#1D252E" stroke-linecap="round" stroke-linejoin="round" stroke-width="2" d="m352.28 501.31-17.14-27.6-14.14-.13c-4.09-.22-3.28 4.37-3.28 4.37l14.61-.05 13.56 21.28"/><path stroke="#1D252E" stroke-miterlimit="10" d="M323.057 482.343c.469-.18.683-.761.477-1.297-.205-.536-.753-.825-1.222-.645s-.683.76-.477 1.297.753.825 1.222.645Z"/><path stroke="#1D252E" stroke-linecap="round" stroke-linejoin="round" d="m334.74 477.58 2.33 3.56"/><path fill="#fff" d="M428.72 529.77c-7.9 8.38-20.81 6.23-20.81 6.23l-54.23-24.66a23.7 23.7 0 0 1-13.28 1.91c-6.92-1.25-18.26-9.35-19.66-17.17s19.46-6 24.53-5.74q5.09.3 16.15 7l46.78 10.58 8.53-8.4 24.74 18.37z"/><path stroke="#1D252E" stroke-linecap="round" stroke-width="3" d="M428.72 529.77c-7.9 8.38-20.57 6.17-20.57 6.17l-54.47-24.6a23.7 23.7 0 0 1-13.28 1.91c-6.92-1.25-18.26-9.35-19.66-17.17s19.46-6 24.53-5.74q5.09.3 16.15 7l46.78 10.58"/><path fill="#009681" d="m436.91 527.91-27.38-27.15c16.62-24.07 34.72-58 47.18-52.83 20.6 8.6 17.57 30.34 15.25 40.34-5.81 25.04-35.05 39.64-35.05 39.64"/><path stroke="#1D252E" stroke-linecap="round" stroke-width="3" d="M471.24 490.6c-11.07 23.22-34.33 37.31-34.33 37.31M425.08 489.11c-3.25 1.26-5.53 4.09-7.81 8"/><path stroke="#1D252E" stroke-linecap="round" stroke-linejoin="round" stroke-width="3" d="M407.97 960.33h-70.02M509.73 960.33h-82.06"/></svg>