<svg width="1099" height="1200" viewBox="0 0 1099 1200" fill="none" xmlns="http://www.w3.org/2000/svg">
<g clip-path="url('#clip0_201_90')">
<mask id="mask0_201_90" style="mask-type: luminance" maskUnits="userSpaceOnUse" x="-101" y="0" width="1200" height="1200">
<path d="M1099 0H-101V1200H1099V0Z" fill="white"></path>
</mask>
<g mask="url('#mask0_201_90')">
<path d="M340.86 467.29C451.55 392.45 705.86 193.21 838.99 309.14C972.12 425.07 899.25 981.74 506.99 921.8C359.63 899.28 136.99 886.85 105.77 817.8C53.8798 702.94 271.75 514 340.86 467.29Z" fill="#F39898"></path>
<path d="M776.21 396.45V285.56C776.191 270.284 770.115 255.639 759.313 244.837C748.511 234.035 733.866 227.959 718.59 227.94H461.19C445.914 227.959 431.269 234.035 420.467 244.837C409.665 255.639 403.588 270.284 403.57 285.56V330.56H401.38V369.36H403.57V378.36H401.38V439.5H403.57V441.79H401.38V503H403.57V903.92C403.586 919.197 409.662 933.844 420.464 944.646C431.266 955.448 445.913 961.524 461.19 961.54H718.59C733.867 961.524 748.513 955.448 759.316 944.646C770.118 933.844 776.194 919.197 776.21 903.92V485.6H778.4V396.45H776.21Z" fill="#1D252F"></path>
<path d="M752.63 281.5V912C752.63 926.52 740.95 938.41 726.3 939.15C725.82 939.15 725.35 939.15 724.87 939.15H454.87C454.38 939.15 453.87 939.15 453.44 939.15C438.79 938.41 427.09 926.52 427.09 912V281.5C427.09 266.5 439.56 254.32 454.87 254.32H501.59V259.86C501.618 262.279 502.121 264.669 503.072 266.893C504.023 269.118 505.403 271.133 507.133 272.824C508.863 274.515 510.909 275.848 513.155 276.749C515.4 277.649 517.801 278.098 520.22 278.07H659.52C664.403 278.121 669.106 276.231 672.597 272.817C676.089 269.403 678.082 264.743 678.14 259.86V254.32H724.87C740.18 254.32 752.63 266.51 752.63 281.5Z" fill="#FFEBEE"></path>
<path d="M635.51 263.01C637.907 263.01 639.85 261.067 639.85 258.67C639.85 256.273 637.907 254.33 635.51 254.33C633.113 254.33 631.17 256.273 631.17 258.67C631.17 261.067 633.113 263.01 635.51 263.01Z" fill="white"></path>
<path d="M618.41 254.32H548.95C546.553 254.32 544.61 256.263 544.61 258.66V258.67C544.61 261.067 546.553 263.01 548.95 263.01H618.41C620.807 263.01 622.75 261.067 622.75 258.67V258.66C622.75 256.263 620.807 254.32 618.41 254.32Z" fill="white"></path>
<path d="M723.12 480.76V628.42C723.12 631.072 722.066 633.616 720.191 635.491C718.316 637.366 715.772 638.42 713.12 638.42H467.52C464.868 638.42 462.324 637.366 460.449 635.491C458.574 633.616 457.52 631.072 457.52 628.42V480.76C457.52 478.108 458.574 475.564 460.449 473.689C462.324 471.814 464.868 470.76 467.52 470.76H713.12C715.772 470.76 718.316 471.814 720.191 473.689C722.066 475.564 723.12 478.108 723.12 480.76Z" fill="white"></path>
<path d="M723.12 546.06V628.42C723.12 631.072 722.066 633.616 720.191 635.491C718.316 637.366 715.772 638.42 713.12 638.42H467.52C464.868 638.42 462.324 637.366 460.449 635.491C458.574 633.616 457.52 631.072 457.52 628.42V480.76C457.52 478.108 458.574 475.564 460.449 473.689C462.324 471.814 464.868 470.76 467.52 470.76H620.29" stroke="#1D252E" stroke-width="4" stroke-linecap="round" stroke-linejoin="round"></path>
<path d="M568.01 580.45H485.35C482.274 580.45 479.78 582.944 479.78 586.02C479.78 589.096 482.274 591.59 485.35 591.59H568.01C571.086 591.59 573.58 589.096 573.58 586.02C573.58 582.944 571.086 580.45 568.01 580.45Z" fill="#1D252F"></path>
<path d="M593.64 603.22H485.35C482.274 603.22 479.78 605.714 479.78 608.79C479.78 611.866 482.274 614.36 485.35 614.36H593.64C596.716 614.36 599.21 611.866 599.21 608.79C599.21 605.714 596.716 603.22 593.64 603.22Z" fill="#1D252F"></path>
<path d="M723.12 497.58H457.51V536.83H723.12V497.58Z" fill="#1D252F"></path>
<path d="M666.09 450.09H698.04C723.406 450.09 743.97 470.654 743.97 496.02C743.97 521.386 723.406 541.95 698.04 541.95H666.09C640.724 541.95 620.16 521.386 620.16 496.02C620.16 470.654 640.724 450.09 666.09 450.09Z" fill="#D8232A" stroke="black" stroke-width="4"></path>
<path d="M706.86 511.41C707.78 512.413 708.276 513.732 708.247 515.093C708.217 516.453 707.664 517.749 706.702 518.711C705.739 519.673 704.443 520.227 703.083 520.257C701.722 520.286 700.403 519.789 699.4 518.87L684 503.49L668.61 518.87C668.129 519.395 667.546 519.818 666.896 520.112C666.247 520.406 665.545 520.565 664.833 520.581C664.12 520.596 663.412 520.467 662.751 520.202C662.089 519.936 661.488 519.54 660.984 519.036C660.481 518.532 660.084 517.931 659.818 517.27C659.553 516.608 659.424 515.9 659.439 515.188C659.455 514.475 659.614 513.773 659.908 513.124C660.202 512.475 660.625 511.892 661.15 511.41L676.55 496L661.16 480.61C660.651 480.124 660.243 479.542 659.962 478.897C659.681 478.252 659.532 477.557 659.523 476.853C659.514 476.149 659.646 475.451 659.912 474.799C660.177 474.147 660.569 473.555 661.067 473.057C661.564 472.559 662.156 472.165 662.807 471.899C663.459 471.633 664.157 471.5 664.861 471.508C665.565 471.516 666.26 471.664 666.905 471.944C667.551 472.225 668.134 472.631 668.62 473.14L684 488.56L699.39 473.16C699.876 472.651 700.459 472.245 701.105 471.964C701.751 471.684 702.446 471.536 703.149 471.528C703.853 471.52 704.551 471.653 705.203 471.919C705.854 472.185 706.446 472.579 706.944 473.077C707.441 473.575 707.834 474.167 708.099 474.819C708.364 475.471 708.496 476.169 708.487 476.873C708.479 477.577 708.329 478.272 708.048 478.917C707.767 479.562 707.36 480.144 706.85 480.63L691.48 496L706.86 511.41Z" fill="white" stroke="#1D252E" stroke-width="4.12" stroke-linecap="round" stroke-linejoin="round"></path>
<path d="M493.85 669.27H685.85" stroke="#1D252E" stroke-width="4" stroke-linecap="round" stroke-linejoin="round"></path>
<path d="M540.86 688.39H638.84" stroke="#1D252E" stroke-width="4" stroke-linecap="round" stroke-linejoin="round"></path>
<path d="M382.43 924.07L382.96 936.75C383.08 939.61 387.96 968.05 385.45 968.75C382.94 969.45 310.97 975.75 319.67 968.75C328.37 961.75 355.95 941.47 355.67 935.75C357.3 933.11 355.81 922.3 355.81 922.3L382.43 924.07Z" fill="white"></path>
<path d="M285.67 918.85L285.34 953.66L285.79 971.51L221.51 970.51L219.6 968.61L220.3 967.14C237.18 954.81 252.71 942.72 261.3 931.83L262.49 917.11L285.67 918.85Z" fill="white"></path>
<path d="M382.58 927.7L382.96 936.7C383.08 939.56 387.96 968 385.45 968.7C382.94 969.4 310.97 975.7 319.67 968.7C328.37 961.7 355.95 941.42 355.67 935.7L356.43 930.89" stroke="#1D252E" stroke-width="3" stroke-linecap="round" stroke-linejoin="round"></path>
<path d="M285.53 922.49C284.78 940.86 284.82 948.82 285.34 953.66C285.891 959.593 286.041 965.557 285.79 971.51L221.51 970.51C221.012 970.488 220.54 970.281 220.187 969.93C219.834 969.578 219.624 969.108 219.6 968.61C219.589 968.327 219.647 968.045 219.769 967.789C219.891 967.533 220.073 967.31 220.3 967.14C247.687 946.52 261.353 934.75 261.3 931.83L261.82 925.45" stroke="#1D252E" stroke-width="3" stroke-linecap="round" stroke-linejoin="round"></path>
<path d="M343.1 489.84L331.2 486.93L327.6 465.15L331.61 458.07L333.21 450.62L338.8 449.75L341.38 444.33L339.57 438.76L337.73 437.16L339.6 427.23L302.03 426.29L299.9 427.62L295.42 437.57L293.31 448.71L296.1 457.98L300.68 463.54L307.03 467.23L309.32 466.87L312.32 487.14L296.15 488.81L311.92 504.98L344.09 504.16L343.1 489.84Z" fill="white"></path>
<path d="M339.09 489.22L330.73 487.89L327.52 465.46C327.52 465.46 330.97 459.46 331.6 458.07C332.458 455.683 332.982 453.19 333.16 450.66C339.22 450.2 341.83 447.55 341.16 442.66C340.49 438.1 337.45 436.45 331.95 437.42" stroke="#1D252E" stroke-width="3" stroke-linecap="round" stroke-linejoin="round"></path>
<path d="M297.71 433.18C293.903 440.393 292.593 446.463 293.78 451.39C296.84 461.21 302.273 466.543 310.08 467.39L312.21 487.46L304.21 488.68" stroke="#1D252E" stroke-width="3" stroke-linecap="round" stroke-linejoin="round"></path>
<path d="M372.81 649.12C374.28 666.82 390.48 922.54 390.48 922.54C375.567 925.207 364.403 926.54 356.99 926.54C349.577 926.54 344.243 925.207 340.99 922.54L327.8 701.67C321.52 704.4 314.11 704.31 308.94 700.67L298.14 917.07C286.5 918.74 270.03 920.45 264.23 920.36C257.549 920.127 250.921 919.086 244.49 917.26C244.49 917.26 256.82 664.26 269.59 650.51C282.36 636.76 360.26 640.11 372.81 649.12Z" fill="#1D252E"></path>
<path d="M338.13 433.83C336.59 432.89 332.41 432.89 330.79 433.23" stroke="#1D252E" stroke-width="3" stroke-linecap="round" stroke-linejoin="round"></path>
<path d="M339.37 431.39C335.976 430.305 332.393 429.941 328.85 430.32C328.4 429.07 327.85 427.67 327.21 426.13C321.97 433.623 312.86 434.387 299.88 428.42C280.41 419.48 298.3 385.85 317.96 396.64C325.053 400.64 329.16 404.153 330.28 407.18C335.5 407.133 338.803 408.52 340.19 411.34C342.843 415.073 342.57 421.757 339.37 431.39Z" fill="#1D252E"></path>
<path d="M343.51 489.26C336.79 498.66 328.79 502.687 319.51 501.34C305.59 499.34 301.18 495.73 298.45 488.93C289.76 486.86 279 493.32 272.03 497.86C265.06 502.4 250.67 524 251 536.5C251.33 549 273.85 548 273.85 548C271.28 557.85 271.73 556.34 268.56 591.72C267.78 607.36 266.257 627.41 263.99 651.87C289.71 660.237 309.23 664.437 322.55 664.47C335.87 664.503 354.26 660.39 377.72 652.13L369.27 558.75C370.93 558.04 378.48 530.48 373.96 509.8C369.44 489.12 363.11 492.31 343.51 489.26Z" fill="#D8232A"></path>
<path d="M303.09 440.43C301.86 450.43 295.33 458.16 291.81 460.7C288.29 463.24 285.67 465.32 283.37 469.5C280.07 478.44 270.52 502.18 264.64 516.21C268.04 515.68 258.24 542.65 254.33 542.21C253.79 542.14 253.24 542.05 252.69 541.96C245.963 541.01 239.856 537.521 235.62 532.21C232.15 528.86 241.73 498.54 273.83 458.54C280.03 445.3 277.53 441.85 290.31 430.25C303.09 418.65 304.32 430.43 303.09 440.43Z" fill="white"></path>
<path d="M254.32 542.21C248.19 541.41 241.27 539.21 235.61 532.21C232.14 528.86 241.72 498.54 273.82 458.54C280.02 445.3 277.52 441.85 290.3 430.25C303.08 418.65 304.3 430.43 303.09 440.43C301.88 450.43 295.33 458.16 291.81 460.7C288.29 463.24 285.67 465.32 283.37 469.5C279.51 479.97 267.63 517.67 265.21 518.36" stroke="#1D252E" stroke-width="3" stroke-linecap="round" stroke-linejoin="round"></path>
<path d="M269.55 581.89C269.55 581.89 272.14 542.01 278.55 535.59" stroke="#1D252E" stroke-width="3" stroke-linecap="round" stroke-linejoin="round"></path>
<path d="M256.91 554.86L246.46 555.04C245.84 555.084 245.219 554.962 244.661 554.686C244.104 554.41 243.631 553.99 243.29 553.47L225.42 523.24C224.06 520.95 226.1 518.67 229.24 518.58L241.17 518.77C241.79 518.721 242.411 518.84 242.969 519.115C243.527 519.389 244.001 519.809 244.34 520.33L261 549.4C262.35 551.7 260.05 554.78 256.91 554.86Z" fill="#D8232A"></path>
<path d="M260 546.61L242.81 519L228.7 518.86C224.61 518.64 225.42 523.23 225.42 523.23H240.03L253.59 544.51" stroke="#1D252E" stroke-width="2" stroke-linecap="round" stroke-linejoin="round"></path>
<path d="M230.728 527.636C231.197 527.456 231.411 526.876 231.205 526.339C231 525.803 230.452 525.514 229.983 525.694C229.514 525.874 229.3 526.455 229.506 526.991C229.712 527.527 230.259 527.816 230.728 527.636Z" stroke="#1D252E" stroke-miterlimit="10"></path>
<path d="M242.41 522.88L244.74 526.44" stroke="#1D252E" stroke-linecap="round" stroke-linejoin="round"></path>
<path d="M336.39 575.07C328.49 583.45 315.58 581.29 315.58 581.29L261.35 556.63C257.2 558.533 252.589 559.2 248.07 558.55C241.15 557.29 229.81 549.19 228.41 541.38C227.01 533.57 247.87 535.38 252.94 535.63C256.327 535.83 261.71 538.163 269.09 542.63L315.87 553.2L324.4 544.8L349.14 563.17L336.39 575.07Z" fill="white"></path>
<path d="M336.39 575.07C328.49 583.45 315.82 581.23 315.82 581.23L261.35 556.63C257.2 558.533 252.589 559.2 248.07 558.55C241.15 557.29 229.81 549.19 228.41 541.38C227.01 533.57 247.87 535.38 252.94 535.63C256.327 535.83 261.71 538.163 269.09 542.63L315.87 553.2" stroke="#1D252E" stroke-width="3" stroke-linecap="round"></path>
<path d="M344.58 573.2L317.2 546.05C333.82 521.99 351.92 488.05 364.38 493.23C384.98 501.82 381.95 523.56 379.63 533.57C373.82 558.6 344.58 573.2 344.58 573.2Z" fill="#D8232A"></path>
<path d="M378.91 535.89C367.84 559.12 344.58 573.2 344.58 573.2" stroke="#1D252E" stroke-width="3" stroke-linecap="round"></path>
<path d="M332.75 534.4C329.5 535.66 327.22 538.49 324.94 542.4" stroke="#1D252E" stroke-width="3" stroke-linecap="round"></path>
</g>
</g>
<defs>
<clipPath id="clip0_201_90">
<rect width="1099" height="1200" fill="white"></rect>
</clipPath>
</defs>
</svg>
