<svg xmlns="http://www.w3.org/2000/svg" width="1099" height="1200" fill="none"><g clip-path="url('#clip0_201_90')"><mask id="mask0_201_90" width="1200" height="1200" x="-101" y="0" maskUnits="userSpaceOnUse" style="mask-type:luminance"><path fill="#fff" d="M1099 0H-101v1200h1200z"/></mask><g mask="url('#mask0_201_90')"><path fill="#F39898" d="M340.86 467.29c110.69-74.84 365-274.08 498.13-158.15s60.26 672.6-332 612.66c-147.36-22.52-370-34.95-401.22-104C53.88 702.94 271.75 514 340.86 467.29"/><path fill="#1D252F" d="M776.21 396.45V285.56a57.69 57.69 0 0 0-57.62-57.62h-257.4a57.69 57.69 0 0 0-57.62 57.62v45h-2.19v38.8h2.19v9h-2.19v61.14h2.19v2.29h-2.19V503h2.19v400.92a57.68 57.68 0 0 0 57.62 57.62h257.4a57.683 57.683 0 0 0 57.62-57.62V485.6h2.19v-89.15z"/><path fill="#FFEBEE" d="M752.63 281.5V912c0 14.52-11.68 26.41-26.33 27.15H453.44c-14.65-.74-26.35-12.63-26.35-27.15V281.5c0-15 12.47-27.18 27.78-27.18h46.72v5.54a18.43 18.43 0 0 0 5.543 12.964 18.43 18.43 0 0 0 13.087 5.246h139.3a18.43 18.43 0 0 0 18.62-18.21v-5.54h46.73c15.31 0 27.76 12.19 27.76 27.18"/><path fill="#fff" d="M635.51 263.01a4.34 4.34 0 1 0 0-8.68 4.34 4.34 0 0 0 0 8.68M618.41 254.32h-69.46a4.34 4.34 0 0 0-4.34 4.34v.01a4.34 4.34 0 0 0 4.34 4.34h69.46a4.34 4.34 0 0 0 4.34-4.34v-.01a4.34 4.34 0 0 0-4.34-4.34M723.12 480.76v147.66a10 10 0 0 1-10 10h-245.6a10 10 0 0 1-10-10V480.76a10 10 0 0 1 10-10h245.6a10 10 0 0 1 10 10"/><path stroke="#1D252E" stroke-linecap="round" stroke-linejoin="round" stroke-width="4" d="M723.12 546.06v82.36a10 10 0 0 1-10 10h-245.6a10 10 0 0 1-10-10V480.76a10 10 0 0 1 10-10h152.77"/><path fill="#1D252F" d="M568.01 580.45h-82.66a5.57 5.57 0 0 0 0 11.14h82.66a5.57 5.57 0 0 0 0-11.14M593.64 603.22H485.35a5.57 5.57 0 0 0 0 11.14h108.29a5.57 5.57 0 0 0 0-11.14M723.12 497.58H457.51v39.25h265.61z"/><path fill="#D8232A" stroke="#000" stroke-width="4" d="M666.09 450.09h31.95c25.366 0 45.93 20.564 45.93 45.93s-20.564 45.93-45.93 45.93h-31.95c-25.366 0-45.93-20.564-45.93-45.93s20.564-45.93 45.93-45.93Z"/><path fill="#fff" stroke="#1D252E" stroke-linecap="round" stroke-linejoin="round" stroke-width="4.12" d="M706.86 511.41a5.28 5.28 0 0 1-7.46 7.46L684 503.49l-15.39 15.38a5.27 5.27 0 0 1-3.777 1.711 5.3 5.3 0 0 1-3.849-1.545 5.3 5.3 0 0 1-1.166-1.766 5.288 5.288 0 0 1 1.332-5.86l15.4-15.41-15.39-15.39a5.3 5.3 0 0 1-1.637-3.757 5.3 5.3 0 0 1 .389-2.054 5.282 5.282 0 0 1 6.993-2.855 5.3 5.3 0 0 1 1.715 1.196L684 488.56l15.39-15.4a5.28 5.28 0 0 1 5.813-1.241 5.3 5.3 0 0 1 2.896 2.9 5.28 5.28 0 0 1-.051 4.098 5.3 5.3 0 0 1-1.198 1.713L691.48 496z"/><path stroke="#1D252E" stroke-linecap="round" stroke-linejoin="round" stroke-width="4" d="M493.85 669.27h192M540.86 688.39h97.98"/><path fill="#fff" d="m382.43 924.07.53 12.68c.12 2.86 5 31.3 2.49 32s-74.48 7-65.78 0 36.28-27.28 36-33c1.63-2.64.14-13.45.14-13.45zM285.67 918.85l-.33 34.81.45 17.85-64.28-1-1.91-1.9.7-1.47c16.88-12.33 32.41-24.42 41-35.31l1.19-14.72z"/><path stroke="#1D252E" stroke-linecap="round" stroke-linejoin="round" stroke-width="3" d="m382.58 927.7.38 9c.12 2.86 5 31.3 2.49 32s-74.48 7-65.78 0 36.28-27.28 36-33l.76-4.81M285.53 922.49c-.75 18.37-.71 26.33-.19 31.17.551 5.933.701 11.897.45 17.85l-64.28-1a2 2 0 0 1-1.91-1.9 1.75 1.75 0 0 1 .7-1.47q41.08-30.93 41-35.31l.52-6.38"/><path fill="#fff" d="m343.1 489.84-11.9-2.91-3.6-21.78 4.01-7.08 1.6-7.45 5.59-.87 2.58-5.42-1.81-5.57-1.84-1.6 1.87-9.93-37.57-.94-2.13 1.33-4.48 9.95-2.11 11.14 2.79 9.27 4.58 5.56 6.35 3.69 2.29-.36 3 20.27-16.17 1.67 15.77 16.17 32.17-.82z"/><path stroke="#1D252E" stroke-linecap="round" stroke-linejoin="round" stroke-width="3" d="m339.09 489.22-8.36-1.33-3.21-22.43s3.45-6 4.08-7.39a27.6 27.6 0 0 0 1.56-7.41c6.06-.46 8.67-3.11 8-8-.67-4.56-3.71-6.21-9.21-5.24M297.71 433.18Q292 444 293.78 451.39q4.59 14.73 16.3 16l2.13 20.07-8 1.22"/><path fill="#1D252E" d="M372.81 649.12c1.47 17.7 17.67 273.42 17.67 273.42q-22.37 4-33.49 4t-16-4L327.8 701.67c-6.28 2.73-13.69 2.64-18.86-1l-10.8 216.4c-11.64 1.67-28.11 3.38-33.91 3.29a82.8 82.8 0 0 1-19.74-3.1s12.33-253 25.1-266.75 90.67-10.4 103.22-1.39"/><path stroke="#1D252E" stroke-linecap="round" stroke-linejoin="round" stroke-width="3" d="M338.13 433.83c-1.54-.94-5.72-.94-7.34-.6"/><path fill="#1D252E" d="M339.37 431.39a25.6 25.6 0 0 0-10.52-1.07c-.45-1.25-1-2.65-1.64-4.19q-7.86 11.24-27.33 2.29c-19.47-8.94-1.58-42.57 18.08-31.78q10.64 6 12.32 10.54 7.83-.07 9.91 4.16 3.98 5.6-.82 20.05"/><path fill="#D8232A" d="M343.51 489.26q-10.08 14.1-24 12.08c-13.92-2-18.33-5.61-21.06-12.41-8.69-2.07-19.45 4.39-26.42 8.93S250.67 524 251 536.5s22.85 11.5 22.85 11.5c-2.57 9.85-2.12 8.34-5.29 43.72q-1.17 23.46-4.57 60.15 38.58 12.55 58.56 12.6t55.17-12.34l-8.45-93.38c1.66-.71 9.21-28.27 4.69-48.95s-10.85-17.49-30.45-20.54"/><path fill="#fff" d="M303.09 440.43c-1.23 10-7.76 17.73-11.28 20.27s-6.14 4.62-8.44 8.8c-3.3 8.94-12.85 32.68-18.73 46.71 3.4-.53-6.4 26.44-10.31 26-.54-.07-1.09-.16-1.64-.25a26.6 26.6 0 0 1-17.07-9.75c-3.47-3.35 6.11-33.67 38.21-73.67 6.2-13.24 3.7-16.69 16.48-28.29s14.01.18 12.78 10.18"/><path stroke="#1D252E" stroke-linecap="round" stroke-linejoin="round" stroke-width="3" d="M254.32 542.21c-6.13-.8-13.05-3-18.71-10-3.47-3.35 6.11-33.67 38.21-73.67 6.2-13.24 3.7-16.69 16.48-28.29s14 .18 12.79 10.18-7.76 17.73-11.28 20.27-6.14 4.62-8.44 8.8c-3.86 10.47-15.74 48.17-18.16 48.86M269.55 581.89s2.59-39.88 9-46.3"/><path fill="#D8232A" d="m256.91 554.86-10.45.18a3.5 3.5 0 0 1-3.17-1.57l-17.87-30.23c-1.36-2.29.68-4.57 3.82-4.66l11.93.19a3.45 3.45 0 0 1 3.17 1.56L261 549.4c1.35 2.3-.95 5.38-4.09 5.46"/><path stroke="#1D252E" stroke-linecap="round" stroke-linejoin="round" stroke-width="2" d="M260 546.61 242.81 519l-14.11-.14c-4.09-.22-3.28 4.37-3.28 4.37h14.61l13.56 21.28"/><path stroke="#1D252E" stroke-miterlimit="10" d="M230.728 527.636c.469-.18.683-.76.477-1.297-.205-.536-.753-.825-1.222-.645s-.683.761-.477 1.297.753.825 1.222.645Z"/><path stroke="#1D252E" stroke-linecap="round" stroke-linejoin="round" d="m242.41 522.88 2.33 3.56"/><path fill="#fff" d="M336.39 575.07c-7.9 8.38-20.81 6.22-20.81 6.22l-54.23-24.66a23.75 23.75 0 0 1-13.28 1.92c-6.92-1.26-18.26-9.36-19.66-17.17s19.46-6 24.53-5.75q5.08.3 16.15 7l46.78 10.57 8.53-8.4 24.74 18.37z"/><path stroke="#1D252E" stroke-linecap="round" stroke-width="3" d="M336.39 575.07c-7.9 8.38-20.57 6.16-20.57 6.16l-54.47-24.6a23.75 23.75 0 0 1-13.28 1.92c-6.92-1.26-18.26-9.36-19.66-17.17s19.46-6 24.53-5.75q5.08.3 16.15 7l46.78 10.57"/><path fill="#D8232A" d="m344.58 573.2-27.38-27.15c16.62-24.06 34.72-58 47.18-52.82 20.6 8.59 17.57 30.33 15.25 40.34-5.81 25.03-35.05 39.63-35.05 39.63"/><path stroke="#1D252E" stroke-linecap="round" stroke-width="3" d="M378.91 535.89c-11.07 23.23-34.33 37.31-34.33 37.31M332.75 534.4c-3.25 1.26-5.53 4.09-7.81 8"/></g></g><defs><clipPath id="clip0_201_90"><path fill="#fff" d="M0 0h1099v1200H0z"/></clipPath></defs></svg>