<?xml version="1.0" encoding="UTF-8"?><svg id="Layer_1" xmlns="http://www.w3.org/2000/svg" viewBox="0 0 800 800"><defs><style>.cls-1{fill:#fbb040;}.cls-2,.cls-3,.cls-4,.cls-5,.cls-6,.cls-7,.cls-8{stroke:#000;stroke-width:2px;}.cls-2,.cls-3,.cls-6{fill:#fff;}.cls-2,.cls-4,.cls-7{stroke-miterlimit:10;}.cls-3,.cls-4,.cls-9,.cls-10,.cls-11,.cls-8{stroke-linecap:round;}.cls-3,.cls-9,.cls-10,.cls-11{stroke-linejoin:round;}.cls-4,.cls-8{fill:none;}.cls-5,.cls-6,.cls-8{stroke-miterlimit:24;}.cls-9{stroke-width:1.17px;}.cls-9,.cls-10,.cls-11{stroke:#fff;}.cls-10{stroke-width:1.17px;}.cls-11{stroke-width:1.17px;}</style></defs><path id="background_shape" class="cls-1" d="M648.64,344.34c4.55,98.44-67.13,250.97-191.57,256.72-124.45,5.75-301.08-87.93-305.63-186.36s44.61-209.84,169.06-215.59c124.45-5.75,323.59,46.79,328.14,145.23Z"/><g><g><g><path class="cls-2" d="M681.61,478.25c-78.51-6.76-286.6,5.67-382.71,0-11.26-.66-20.83-12.35-20.41-27.57,2.25-82.42-2.86-251.94,0-344.55,.47-15.21,9.14-27.34,20.41-27.57,100.67-2.05,292.62-5.34,382.71,0,11.26,.67,20.41,12.34,20.41,27.57,0,0,1.7,141.5-.46,190.74-1.28,29.18,1.48,114.2,.46,153.81-.39,15.22-9.16,28.54-20.41,27.57Z"/><path class="cls-7" d="M702.02,106.13c0-15.22-9.14-27.33-20.41-27.57-95.93-2.05-284.48-2.71-382.71,0-11.27,.31-20.41,12.34-20.41,27.57h423.53Z"/></g><g><circle class="cls-10" cx="636.41" cy="91.85" r="6.25"/><circle class="cls-11" cx="657.36" cy="91.85" r="6.25"/><circle class="cls-9" cx="678.3" cy="91.85" r="6.25"/></g><path class="cls-7" d="M571.63,168.06c-41.16,.69-123.57-.62-164.8,0-2.13,.03-3.85-1.73-3.85-3.85v-2.03c0-2.13,1.73-3.91,3.85-3.85,41.23,1.03,124.51-1.43,164.8,0,2.13,.08,3.85,1.73,3.85,3.85v2.03c0,2.13-1.73,3.82-3.85,3.85Z"/><path class="cls-3" d="M343.32,199.27c72.88,.38,218.81-.34,291.81,0,3.77,.02,5.05-.97,5.05-2.16v-1.14c0-1.19-1.28-2.19-5.05-2.16-73,.58-220.47-.8-291.81,0-3.77,.04-4.84,.97-4.84,2.16v1.14c0,1.19,1.07,2.14,4.84,2.16Z"/><path class="cls-3" d="M383.3,227.29c52.91,.41,158.86-.37,211.85,0,2.74,.02,3.37-1.03,3.37-2.31v-1.22c0-1.28-.64-2.34-3.37-2.31-53,.62-160.06-.86-211.85,0-2.73,.05-3.35,1.03-3.35,2.31v1.22c0,1.28,.62,2.29,3.35,2.31Z"/></g><g><g><g><path class="cls-2" d="M164.89,251.63c.45-.81-13.66-2.54-12.67-4.29,.41-1.04,5.43-1.84,11.66-1.41,12.72,.66,17.11,5.08,29.75,9.82,17.31,6.79,40.33,18.36,48.27,38.02,5.66,12.89,3.94,24.03-4.03,35.44-14.66,19.3-41.68,26.49-64.16,24.39-16.04-.88-22.14-23.64-7.9-31.64,13.1-6.45,25.42,.65,39.18-3.55,20.26-4.9,17.37-19.73,4.23-31.46-8.13-6.33-17.62-14.52-27.19-12.74-4.93,1.12-11.69,5.71-16.1,4.66-1.79-.44-1.16-1.41-.02-2.81,11.27-13.36-11.68-1.11-14.33-4.17-1.78-4.01,14.27-7.71,14.81-8.68-.23-.58-5.5-.1-10.68,.43-5.2,.49-10.23,1.08-10.69-.42-.95-3.78,19.25-4.76,19.81-6.05,.29-1.52-18.81-.38-18.4-2.53-.19-3.64,17.53-2.7,18.45-3.03Z"/><path class="cls-2" d="M192.89,319.75c.92,4.06,1.92,8.08,2.6,12.16,.68,4.07,1.04,8.19,.54,12.48-.34,2.91-.81,5.79-1.26,8.64"/></g><g><path class="cls-6" d="M159.13,269.21c3.35-3.83,6.3-5.86,9.81-7.5,3.5-1.65,7.59-2.92,13.18-5.47,3.74,.92,5.33,2.68,6.31,5.88,.99,3.19,1.38,7.81,2.6,14.56,1.68,9.49,.79,16.67-4.99,21.75-2.53,2.2-4.29,2.45-5.83,2.9-1.54,.45-2.83,1.09-4.53,3.96-1.67,2.86-1.37,5.74-.35,8.65,.49,1.45,1.15,2.9,1.82,4.33,.66,1.43,1.31,2.85,1.81,4.23-2.21,4.81-8.58,5.99-14.73,5.12-6.17-.88-12.13-3.68-13.8-7.14,.44-1.07,2.09-2.12,3.99-3.92,1.91-1.81,4.06-4.39,5.39-8.52,.92-2.88,1.96-6.66,2.74-10.5,.79-3.84,1.34-7.75,1.38-10.81-3.63,.79-5.74-2.92-6.52-7.11-.42-2.1-.46-4.34-.19-6.23,.27-1.89,.9-3.45,1.91-4.16Z"/><path class="cls-8" d="M162.85,278.84s-.63-.67,.05-1.34"/><path class="cls-4" d="M175.03,273.12c.44-.76,2.39-1.95,3.75-1.52"/><path class="cls-4" d="M186.68,270.43c-.76-.51-3.04-.6-4.04,.46"/><path class="cls-8" d="M182.54,275.96c.49,5.24,4.61,4.95,3.21,6.69-.49,.62-1.72,.85-2.52,.44"/><path d="M186.05,276.17c-.68,.1-1.31-.38-1.43-1.1-.11-.7,.38-1.33,1.06-1.44,.68-.11,1.32,.37,1.43,1.07,.11,.7-.38,1.37-1.06,1.47Z"/><path d="M178.56,277.29c-.68,.1-1.31-.37-1.42-1.07-.11-.68,.38-1.3,1.06-1.41,.68-.11,1.32,.36,1.43,1.04,.11,.69-.39,1.34-1.07,1.44Z"/><path class="cls-8" d="M179.17,290.48c1.48,1.07,6.69,.52,5.72-1.38-.85-2.26-7.58-1.04-5.72,1.38Z"/><path class="cls-5" d="M167.6,275.46c-.3,.03-1.14,.2-1.91,.42-.35-1.02-1.05-1.53-1.08-1.55-.76-.63-2.16-1.34-3.65-.57-1.77,.91-2.16,3.29-1.89,4.73,.33,1.85,2.43,5.97,6.82,3.39,.9,1.71-.36,6.22-1.96,7.34-.14,0-1.53,.31-3.72-3.58-1.2,.45-2.77,1.59-4.01,.12-1.44-1.71-.59-4.05-.1-4.95-1.42,.47-2.86-.09-3.36-1.58-.56-1.69,1.1-3.53,3.07-4.05-1.57-.23-3.82-.21-4.11-2.08-.4-2.5,2.05-3.81,3.43-4.55-.8-.2-5.47-.65-5.17-2.75,.45-3.44,3.73-3.2,5.57-3.24-1.72-1.27-2.11-2.79-1.24-4.43,1.35-2.51,5.3-2.7,6.73-1.67-.45-.77-.51-1.94-.28-3.04,.21-1.09,.7-2.11,1.36-2.56,1.41-.96,5.86,0,6.54,1.24,.04-1.63-.16-4.32,2.33-5.28,2.67-1.04,5.57,1.59,6.33,3.15,.02-1.29,3.31-5.44,5.62-4.45,.98,.43,1.6,1.42,1.85,2.52,.23,1.1,.1,2.31-.39,3.18,1.76-.94,4.48-1.48,5.8,.39,1.46,2.09,.22,3.15-.61,4.65,.79-.37,4.27,.46,4.82,2.82,.45,1.86-2.62,2.84-3.42,2.85,.95,.99,.46,2.68-1.17,3.46-1.66,.77-2.48-.78-3.61-1.94,.13,1.11-.25,2.61-1.28,3.02-2.14,.84-4.27-1.81-5.01-2.75-.12,1.26-.78,2.95-2.06,3.68-2.82,1.58-4.18-.22-5.5-1.52,.49,1.59-1.13,3.44-2.61,3.63-1.92,.28-3.59-.6-4.75-.51-1.09,.98,1.17,3.78,1.98,4.95,.14,.2,.33,.32,.68,1.52Z"/></g><path class="cls-6" d="M213.98,432.72c-13.29,2.69-77.07,3.78-94.11,4.88,1.2-33.99-10.52-81.01,4.52-104.97,4.99-7.95,15.04-11.61,25.56-12.65,4.81,4.83,16.85,12.3,28.14,.28,9.42,5.28,13.27,15.47,15.1,18.89,11.35,22.21,15.9,68.33,20.8,93.58Z"/><g><path class="cls-2" d="M168.71,691.26c5.55,7.54,15.01,9.12,16.93,14.69,1.93,5.59-6.4,6.08-10.85,5.94-14.92-.47-49.26-1.19-56.58-2.82-6.79-3.5-6.57-32.33-7.14-40.98,0-.21,3.45-.3,8.63-.32,13.7,.06,33.29,.07,46.69,.77-.18,2.62-.22,20.07,2.31,22.71Z"/><path class="cls-7" d="M111.48,668.72c2.46-51.76,3.78-132.37,4.14-156.5,.36-24.13,4.92-93.69,4.92-93.69,0,0,25.83,6.79,42.79,4.69,16.96-2.09,19.64,33.68,24.07,68.02,5.06,43.75-16.25,134.27-20.34,177.73l-55.59-.25Z"/></g><g><path class="cls-2" d="M260.44,687.24c4.13,7.23,13.81,9.19,16.31,16.39,1.52,6.34-6.85,6.45-11.28,6.03-11.74-1.08-45.92-3.99-56.24-6.63-6.74-5.03-5.26-30.58-6.54-38.71,14.9-1,39.85-1.06,55.33-.98-.05,2.76,.05,21.06,2.42,23.9Z"/><path class="cls-7" d="M202.69,664.56c.29-23.55-1.81-47.48-4.67-70.91-2.73-22.03-9.19-79.11-10.66-84.43-12.33-41.57-24.04-86-24.04-86l46-8.24s33.57,66.11,41.25,95.47c7.49,38.02,8.64,76.57,9.14,115.39-.08,12.3-.48,25.3-1.44,37.55-18.54,.56-37.07,.95-55.59,1.17Z"/></g><g><circle class="cls-2" cx="266.13" cy="441.14" r="77.84"/><path class="cls-7" d="M250.79,354.27c-29.5,5.58-56.94,25.61-68.14,53.29-12.18,30.1-4.26,66.87,16.39,91.44,9.58,11.4,22.06,20.16,35.89,25.63,3.33,1.32,41.67,10.53,41.38,5.85,0,.12,.03,.24,.05,.35,4.29,22.03,8.58,44.06,12.87,66.08,3.05,15.68,3.87,32.59,8.27,47.71,4.82,16.56,7.99,33.54,11.04,50.5,1.18,6.56-.63,15.25,2.9,21.21,4.46,7.54,18.59,5.45,16.59-4.88-4.08-21.14-8.23-42.26-12.35-63.4-3.49-17.91-6.98-35.82-10.46-53.73-3.64-18.69-5.55-38.2-10.55-56.48-.76-2.77-1.63-5.68-.94-8.47,1.31-5.3,13-7.4,17.45-9.95,6.47-3.71,12.42-8.3,17.73-13.54,10.47-10.34,18.3-23.13,23.74-36.75,12.57-31.44,1.52-66.07-22.05-89.11-11.75-11.49-26.38-20.18-42.25-24.55-12.17-3.35-25.04-3.58-37.55-1.21Zm89.29,73.38c7.68,40.09-18.6,78.8-58.68,86.48-40.08,7.68-78.8-18.6-86.48-58.68-7.67-40.09,18.6-78.8,58.68-86.48,40.09-7.68,78.8,18.6,86.48,58.68Z"/><path class="cls-2" d="M312.65,486.46c-.99,1.16-2.3,2.41-3.81,2.15-1.4-.24-2.26-1.78-2.24-3.2s.7-2.73,1.36-3.99c4.3-8.15,8.6-16.3,12.9-24.46,2.67-5.08,4.32-13.6,8.51-6.75,5.85,9.58-11.07,29.8-16.72,36.25Z"/></g><g><path class="cls-2" d="M180.4,455.11c-.38,.88,14.61,.95,13.82,2.78-.28,1.08-5.41,2.5-11.99,2.78-13.43,.71-18.66-3.27-32.41-7.11-18.58-5.34-42.38-16.44-53.7-34.56-13.25-30.4,9.39-70.69,31.65-89.41,12.16-11.32,33.2-.16,28.3,16.38-2.8,9.63-12.01,15.04-18.68,21.59-9.59,9.44-21.34,24.22-19.81,39.22,1.14,6.23,7.93,11.89,12.86,16.09,7.21,5.65,16.69,10.44,24.04,11.96,6.44,1.33,15.27-7.43,21.39-6.77,1.89,.26,1.36,1.29,.35,2.8-9.98,14.58,12.34-.2,15.24,2.55,2.37,3.84-13.76,9.33-14.15,10.3,.32,.55,5.72-.47,11-1.62,12.5-3.56,16.21,.03,2.31,4.14-5.06,1.52-10.58,2.49-10.91,3.33-.1,1.59,19.62-1.81,19.5,.32,.66,3.66-17.96,4.83-18.82,5.21Z"/><path class="cls-2" d="M137.07,368.04c-3.47-2.31-6.95-4.56-10.22-7.08-3.27-2.52-6.33-5.32-8.88-8.79-1.73-2.36-3.37-4.76-5.01-7.15"/></g></g><g><path class="cls-6" d="M213.98,432.72c-3.61,.73-10.94,1.34-20.06,1.87,.57-6.05,1.88-11.94,3.86-17.55,2.48-7.02,6-13.61,10.4-19.55,1.27,7.78,2.42,15.36,3.54,22.24,.76,4.72,1.51,9.1,2.26,12.99Z"/><path class="cls-6" d="M251.19,513.63c-27.76-6.3-50.56-28.44-56.26-58.19-1.35-7.04-1.65-14.05-1.01-20.85,.57-6.05,1.88-11.94,3.86-17.55l12.88-2.09s-.17,3.6,1.06,4.78c7.79,15.67,32.43,66.11,38.86,90.72,.21,1.06,.41,2.12,.6,3.18Z"/></g></g></g></svg>